<svg xmlns="http://www.w3.org/2000/svg" xmlns:xlink="http://www.w3.org/1999/xlink" width="500" zoomAndPan="magnify" viewBox="0 0 375 149.999998" height="200" preserveAspectRatio="xMidYMid meet" version="1.0"><defs><g/></defs><g fill="#ffffff" fill-opacity="1"><g transform="translate(38.490387, 101.337753)"><g><path d="M 19.03125 -51.390625 L 31.5625 -23.4375 L 44.078125 -51.390625 L 65.125 -51.390625 L 37.578125 0 L 25.546875 0 L -2 -51.390625 Z M 19.03125 -51.390625 "/></g></g></g><g fill="#ffffff" fill-opacity="1"><g transform="translate(90.075813, 101.337753)"><g><path d="M 58.015625 -23.25 L 20.734375 -23.25 C 20.734375 -19.632812 21.898438 -16.957031 24.234375 -15.21875 C 26.578125 -13.488281 29.117188 -12.625 31.859375 -12.625 C 34.734375 -12.625 37.003906 -13.003906 38.671875 -13.765625 C 40.335938 -14.535156 42.242188 -16.054688 44.390625 -18.328125 L 57.203125 -11.921875 C 51.859375 -2.972656 42.976562 1.5 30.5625 1.5 C 22.8125 1.5 16.160156 -1.148438 10.609375 -6.453125 C 5.066406 -11.765625 2.296875 -18.160156 2.296875 -25.640625 C 2.296875 -33.128906 5.066406 -39.546875 10.609375 -44.890625 C 16.160156 -50.234375 22.8125 -52.90625 30.5625 -52.90625 C 38.707031 -52.90625 45.332031 -50.546875 50.4375 -45.828125 C 55.550781 -41.117188 58.109375 -34.390625 58.109375 -25.640625 C 58.109375 -24.441406 58.078125 -23.644531 58.015625 -23.25 Z M 21.234375 -33.0625 L 40.78125 -33.0625 C 40.375 -35.726562 39.316406 -37.78125 37.609375 -39.21875 C 35.910156 -40.65625 33.726562 -41.375 31.0625 -41.375 C 28.125 -41.375 25.785156 -40.601562 24.046875 -39.0625 C 22.304688 -37.53125 21.367188 -35.53125 21.234375 -33.0625 Z M 21.234375 -33.0625 "/></g></g></g><g fill="#ffffff" fill-opacity="1"><g transform="translate(138.956612, 101.337753)"><g><path d="M 6.015625 0 L 6.015625 -86.15625 L 23.75 -86.15625 L 23.75 0 Z M 6.015625 0 "/></g></g></g><g fill="#ffffff" fill-opacity="1"><g transform="translate(157.184794, 101.337753)"><g><path d="M 19.03125 -51.390625 L 31.5625 -23.4375 L 44.078125 -51.390625 L 65.125 -51.390625 L 37.578125 0 L 25.546875 0 L -2 -51.390625 Z M 19.03125 -51.390625 "/></g></g></g><g fill="#ffffff" fill-opacity="1"><g transform="translate(208.77022, 101.337753)"><g><path d="M 58.015625 -23.25 L 20.734375 -23.25 C 20.734375 -19.632812 21.898438 -16.957031 24.234375 -15.21875 C 26.578125 -13.488281 29.117188 -12.625 31.859375 -12.625 C 34.734375 -12.625 37.003906 -13.003906 38.671875 -13.765625 C 40.335938 -14.535156 42.242188 -16.054688 44.390625 -18.328125 L 57.203125 -11.921875 C 51.859375 -2.972656 42.976562 1.5 30.5625 1.5 C 22.8125 1.5 16.160156 -1.148438 10.609375 -6.453125 C 5.066406 -11.765625 2.296875 -18.160156 2.296875 -25.640625 C 2.296875 -33.128906 5.066406 -39.546875 10.609375 -44.890625 C 16.160156 -50.234375 22.8125 -52.90625 30.5625 -52.90625 C 38.707031 -52.90625 45.332031 -50.546875 50.4375 -45.828125 C 55.550781 -41.117188 58.109375 -34.390625 58.109375 -25.640625 C 58.109375 -24.441406 58.078125 -23.644531 58.015625 -23.25 Z M 21.234375 -33.0625 L 40.78125 -33.0625 C 40.375 -35.726562 39.316406 -37.78125 37.609375 -39.21875 C 35.910156 -40.65625 33.726562 -41.375 31.0625 -41.375 C 28.125 -41.375 25.785156 -40.601562 24.046875 -39.0625 C 22.304688 -37.53125 21.367188 -35.53125 21.234375 -33.0625 Z M 21.234375 -33.0625 "/></g></g></g><g fill="#ffffff" fill-opacity="1"><g transform="translate(257.651019, 101.337753)"><g><path d="M 9.015625 -51.390625 L 9.015625 -70.53125 L 26.75 -70.53125 L 26.75 -51.390625 L 37.578125 -51.390625 L 37.578125 -37.875 L 26.75 -37.875 L 26.75 -21.546875 C 26.75 -16.796875 28.082031 -14.421875 30.75 -14.421875 C 31.425781 -14.421875 32.128906 -14.554688 32.859375 -14.828125 C 33.597656 -15.097656 34.164062 -15.363281 34.5625 -15.625 L 35.171875 -16.03125 L 39.578125 -1.703125 C 35.765625 0.429688 31.421875 1.5 26.546875 1.5 C 23.210938 1.5 20.34375 0.914062 17.9375 -0.25 C 15.53125 -1.414062 13.707031 -2.984375 12.46875 -4.953125 C 11.238281 -6.929688 10.351562 -9.003906 9.8125 -11.171875 C 9.28125 -13.335938 9.015625 -15.660156 9.015625 -18.140625 L 9.015625 -37.875 L 1.609375 -37.875 L 1.609375 -51.390625 Z M 9.015625 -51.390625 "/></g></g></g><g fill="#ffffff" fill-opacity="1"><g transform="translate(285.696046, 101.337753)"><g/></g></g><g fill="#ffffff" fill-opacity="1"><g transform="translate(301.52011, 101.337753)"><g><path d="M 17.4375 -21.4375 C 20.632812 -21.4375 23.351562 -20.316406 25.59375 -18.078125 C 27.832031 -15.847656 28.953125 -13.128906 28.953125 -9.921875 C 28.953125 -6.773438 27.832031 -4.082031 25.59375 -1.84375 C 23.351562 0.382812 20.632812 1.5 17.4375 1.5 C 14.289062 1.5 11.597656 0.382812 9.359375 -1.84375 C 7.128906 -4.082031 6.015625 -6.773438 6.015625 -9.921875 C 6.015625 -13.128906 7.128906 -15.847656 9.359375 -18.078125 C 11.597656 -20.316406 14.289062 -21.4375 17.4375 -21.4375 Z M 17.4375 -21.4375 "/></g></g></g><g fill="#ffffff" fill-opacity="1"><g transform="translate(135.36601, 129.211541)"><g><path d="M 8.753906 -13.511719 C 4.550781 -13.511719 1.152344 -10.152344 1.152344 -5.203125 C 1.152344 -1.726562 3.1875 0.269531 6.488281 0.269531 C 9.886719 0.269531 12.167969 -1.476562 12.976562 -4.394531 L 13.03125 -4.585938 L 10.402344 -4.585938 L 10.328125 -4.394531 C 9.691406 -2.746094 8.5625 -1.707031 6.832031 -1.707031 C 5.164062 -1.707031 3.992188 -2.820312 3.992188 -5.433594 C 3.992188 -9.097656 5.910156 -11.535156 8.464844 -11.535156 C 10.230469 -11.535156 11.171875 -10.75 11.191406 -8.945312 L 11.191406 -8.753906 L 13.839844 -8.753906 L 13.859375 -8.945312 C 14.050781 -11.554688 12.34375 -13.511719 8.753906 -13.511719 Z M 8.753906 -13.511719 "/></g></g></g><g fill="#ffffff" fill-opacity="1"><g transform="translate(147.455198, 129.211541)"><g><path d="M 10.613281 -2.207031 L 3.703125 -2.207031 L 5.664062 -13.246094 L 3.011719 -13.246094 L 0.671875 0 L 10.210938 0 Z M 10.613281 -2.207031 "/></g></g></g><g fill="#ffffff" fill-opacity="1"><g transform="translate(156.742503, 129.211541)"><g><path d="M 8.792969 -13.511719 C 4.089844 -13.511719 1.191406 -10 1.191406 -5.46875 C 1.191406 -2.265625 3.28125 0.269531 7.082031 0.269531 C 11.785156 0.269531 14.683594 -3.242188 14.683594 -7.773438 C 14.683594 -10.980469 12.589844 -13.511719 8.792969 -13.511719 Z M 7.292969 -1.707031 C 5.183594 -1.707031 4.011719 -3.261719 4.011719 -5.527344 C 4.011719 -8.234375 5.46875 -11.535156 8.578125 -11.535156 C 10.671875 -11.535156 11.863281 -9.980469 11.863281 -7.714844 C 11.863281 -5.007812 10.402344 -1.707031 7.292969 -1.707031 Z M 7.292969 -1.707031 "/></g></g></g><g fill="#ffffff" fill-opacity="1"><g transform="translate(169.522576, 129.211541)"><g><path d="M 13.128906 -11.171875 L 13.511719 -13.246094 L 1.882812 -13.246094 L 1.496094 -11.171875 L 6.007812 -11.171875 L 4.03125 0 L 6.679688 0 L 8.65625 -11.171875 Z M 13.128906 -11.171875 "/></g></g></g><g fill="#ffffff" fill-opacity="1"><g transform="translate(179.270457, 129.211541)"><g><path d="M 14.492188 -13.246094 L 11.84375 -13.246094 L 10.824219 -7.542969 L 4.644531 -7.542969 L 5.664062 -13.246094 L 3.011719 -13.246094 L 0.671875 0 L 3.320312 0 L 4.28125 -5.433594 L 10.460938 -5.433594 L 9.5 0 L 12.148438 0 Z M 14.492188 -13.246094 "/></g></g></g><g fill="#ffffff" fill-opacity="1"><g transform="translate(191.398028, 129.211541)"><g><path d="M 3.320312 0 L 5.664062 -13.246094 L 3.011719 -13.246094 L 0.671875 0 Z M 3.320312 0 "/></g></g></g><g fill="#ffffff" fill-opacity="1"><g transform="translate(194.697701, 129.211541)"><g><path d="M 14.644531 -13.246094 L 11.996094 -13.246094 L 10.210938 -2.9375 L 6.527344 -13.246094 L 3.011719 -13.246094 L 0.671875 0 L 3.320312 0 L 5.066406 -10.058594 L 8.675781 0 L 12.304688 0 Z M 14.644531 -13.246094 "/></g></g></g><g fill="#ffffff" fill-opacity="1"><g transform="translate(206.978816, 129.211541)"><g><path d="M 9.058594 -13.511719 C 4.835938 -13.511719 1.132812 -10.269531 1.132812 -5.125 C 1.132812 -1.804688 2.976562 0.269531 6.105469 0.269531 C 7.5625 0.269531 8.65625 -0.078125 9.519531 -0.804688 L 10.347656 -2.128906 L 10.152344 0 L 12.285156 0 L 13.472656 -6.757812 L 8.136719 -6.757812 L 7.753906 -4.683594 L 10.558594 -4.683594 C 9.980469 -2.820312 8.578125 -1.707031 6.871094 -1.707031 C 5.144531 -1.707031 3.992188 -2.996094 3.992188 -5.453125 C 3.992188 -9.136719 6.121094 -11.535156 8.675781 -11.535156 C 10.421875 -11.535156 11.285156 -10.769531 11.304688 -8.945312 L 11.304688 -8.753906 L 13.953125 -8.753906 L 13.972656 -8.945312 C 14.164062 -11.554688 12.648438 -13.511719 9.058594 -13.511719 Z M 9.058594 -13.511719 "/></g></g></g></svg>