<svg xmlns="http://www.w3.org/2000/svg" xmlns:xlink="http://www.w3.org/1999/xlink" width="500" zoomAndPan="magnify" viewBox="0 0 375 374.999991" height="500" preserveAspectRatio="xMidYMid meet" version="1.0"><defs><clipPath id="9108b4ba5c"><path d="M 71.625 37.5 L 303.375 37.5 L 303.375 337.5 L 71.625 337.5 Z M 71.625 37.5 " clip-rule="nonzero"/></clipPath><clipPath id="28c88556e7"><path d="M 142.726562 174.75 L 231.976562 174.75 L 231.976562 264 L 142.726562 264 Z M 142.726562 174.75 " clip-rule="nonzero"/></clipPath></defs><g clip-path="url(#9108b4ba5c)"><path fill="#000000" d="M 73.480469 335.316406 C 74.765625 336.679688 76.566406 337.457031 78.441406 337.457031 L 296.558594 337.457031 C 298.433594 337.457031 300.234375 336.679688 301.519531 335.316406 C 302.808594 333.953125 303.476562 332.113281 303.367188 330.238281 L 289.734375 98.488281 C 289.519531 94.886719 286.53125 92.074219 282.925781 92.074219 L 242.03125 92.074219 C 242.03125 62.007812 217.566406 37.542969 187.5 37.542969 C 157.433594 37.542969 132.96875 62.007812 132.96875 92.074219 L 92.074219 92.074219 C 88.46875 92.074219 85.480469 94.886719 85.269531 98.488281 L 71.636719 330.238281 C 71.523438 332.113281 72.191406 333.953125 73.480469 335.316406 Z M 187.5 51.175781 C 210.054688 51.175781 228.398438 69.519531 228.398438 92.074219 L 146.601562 92.074219 C 146.601562 69.519531 164.945312 51.175781 187.5 51.175781 Z M 98.5 105.707031 L 132.96875 105.707031 L 132.96875 112.523438 C 133.039062 121.457031 146.546875 121.425781 146.601562 112.523438 C 146.601562 112.523438 146.601562 105.707031 146.601562 105.707031 L 228.398438 105.707031 L 228.398438 112.523438 C 228.535156 121.484375 241.894531 121.464844 242.03125 112.523438 C 242.03125 112.523438 242.03125 105.707031 242.03125 105.707031 L 276.5 105.707031 L 289.328125 323.824219 L 85.671875 323.824219 Z M 98.5 105.707031 " fill-opacity="1" fill-rule="nonzero"/></g><g clip-path="url(#28c88556e7)"><path fill="#000000" d="M 187.246094 174.648438 C 186.761719 174.65625 186.28125 174.710938 185.808594 174.8125 C 185.335938 174.914062 184.878906 175.058594 184.433594 175.25 C 183.988281 175.441406 183.566406 175.675781 183.167969 175.949219 C 182.769531 176.226562 182.402344 176.535156 182.0625 176.882812 C 181.726562 177.230469 181.425781 177.605469 181.164062 178.011719 C 180.898438 178.417969 180.679688 178.847656 180.5 179.296875 C 180.320312 179.746094 180.1875 180.210938 180.097656 180.6875 C 180.011719 181.160156 179.972656 181.640625 179.976562 182.125 L 179.976562 211.628906 L 150.472656 211.628906 C 149.984375 211.625 149.5 211.664062 149.019531 211.753906 C 148.539062 211.84375 148.070312 211.980469 147.617188 212.160156 C 147.164062 212.34375 146.734375 212.570312 146.324219 212.835938 C 145.917969 213.105469 145.539062 213.410156 145.191406 213.753906 C 144.84375 214.097656 144.53125 214.46875 144.257812 214.875 C 143.984375 215.28125 143.753906 215.707031 143.5625 216.160156 C 143.375 216.609375 143.234375 217.074219 143.136719 217.554688 C 143.039062 218.035156 142.992188 218.515625 142.992188 219.007812 C 142.992188 219.496094 143.039062 219.980469 143.136719 220.457031 C 143.234375 220.9375 143.375 221.402344 143.5625 221.851562 C 143.753906 222.304688 143.984375 222.730469 144.257812 223.136719 C 144.53125 223.542969 144.84375 223.914062 145.191406 224.257812 C 145.539062 224.601562 145.917969 224.90625 146.324219 225.175781 C 146.734375 225.445312 147.164062 225.667969 147.617188 225.851562 C 148.070312 226.035156 148.539062 226.167969 149.019531 226.257812 C 149.5 226.347656 149.984375 226.390625 150.472656 226.382812 L 179.976562 226.382812 L 179.976562 255.886719 C 179.96875 256.375 180.011719 256.859375 180.101562 257.339844 C 180.191406 257.820312 180.328125 258.289062 180.507812 258.742188 C 180.691406 259.195312 180.917969 259.625 181.183594 260.035156 C 181.453125 260.441406 181.757812 260.820312 182.101562 261.167969 C 182.445312 261.519531 182.816406 261.828125 183.222656 262.101562 C 183.628906 262.375 184.054688 262.605469 184.507812 262.796875 C 184.957031 262.984375 185.421875 263.125 185.902344 263.222656 C 186.378906 263.320312 186.863281 263.367188 187.351562 263.367188 C 187.84375 263.367188 188.328125 263.320312 188.804688 263.222656 C 189.285156 263.125 189.75 262.984375 190.199219 262.796875 C 190.652344 262.605469 191.078125 262.375 191.484375 262.101562 C 191.890625 261.828125 192.261719 261.519531 192.605469 261.167969 C 192.949219 260.820312 193.253906 260.441406 193.523438 260.035156 C 193.789062 259.625 194.015625 259.195312 194.199219 258.742188 C 194.378906 258.289062 194.515625 257.820312 194.605469 257.339844 C 194.695312 256.859375 194.738281 256.375 194.730469 255.886719 L 194.730469 226.382812 L 224.234375 226.382812 C 224.722656 226.390625 225.207031 226.347656 225.6875 226.257812 C 226.167969 226.167969 226.636719 226.03125 227.089844 225.851562 C 227.542969 225.667969 227.972656 225.445312 228.382812 225.175781 C 228.789062 224.90625 229.167969 224.601562 229.515625 224.257812 C 229.863281 223.914062 230.175781 223.542969 230.449219 223.136719 C 230.722656 222.730469 230.953125 222.304688 231.144531 221.851562 C 231.332031 221.402344 231.472656 220.9375 231.570312 220.457031 C 231.667969 219.980469 231.714844 219.496094 231.714844 219.007812 C 231.714844 218.515625 231.667969 218.035156 231.570312 217.554688 C 231.472656 217.074219 231.332031 216.609375 231.144531 216.160156 C 230.953125 215.707031 230.722656 215.28125 230.449219 214.875 C 230.175781 214.46875 229.863281 214.097656 229.515625 213.753906 C 229.167969 213.410156 228.789062 213.105469 228.382812 212.835938 C 227.972656 212.570312 227.542969 212.34375 227.089844 212.160156 C 226.636719 211.980469 226.167969 211.84375 225.6875 211.753906 C 225.207031 211.664062 224.722656 211.625 224.234375 211.628906 L 194.730469 211.628906 L 194.730469 182.125 C 194.734375 181.632812 194.695312 181.144531 194.601562 180.660156 C 194.511719 180.175781 194.371094 179.703125 194.1875 179.246094 C 194 178.789062 193.773438 178.355469 193.5 177.945312 C 193.226562 177.535156 192.914062 177.15625 192.566406 176.804688 C 192.21875 176.457031 191.839844 176.148438 191.425781 175.875 C 191.015625 175.601562 190.582031 175.375 190.125 175.1875 C 189.667969 175.003906 189.195312 174.867188 188.710938 174.773438 C 188.226562 174.683594 187.738281 174.640625 187.246094 174.648438 Z M 187.246094 174.648438 " fill-opacity="1" fill-rule="nonzero"/></g></svg>