<svg xmlns="http://www.w3.org/2000/svg" xmlns:xlink="http://www.w3.org/1999/xlink" width="500" zoomAndPan="magnify" viewBox="0 0 375 374.999991" height="500" preserveAspectRatio="xMidYMid meet" version="1.0"><defs><clipPath id="2c4ef8f60d"><path d="M 71.625 37.5 L 303.375 37.5 L 303.375 337.5 L 71.625 337.5 Z M 71.625 37.5 " clip-rule="nonzero"/></clipPath></defs><rect x="-37.5" width="450" fill="#ffffff" y="-37.499999" height="449.999989" fill-opacity="1"/><rect x="-37.5" width="450" fill="#ffffff" y="-37.499999" height="449.999989" fill-opacity="1"/><g clip-path="url(#2c4ef8f60d)"><path fill="#000000" d="M 73.480469 335.316406 C 74.765625 336.679688 76.566406 337.457031 78.441406 337.457031 L 296.558594 337.457031 C 298.433594 337.457031 300.234375 336.679688 301.519531 335.316406 C 302.808594 333.953125 303.476562 332.113281 303.367188 330.238281 L 289.734375 98.488281 C 289.519531 94.886719 286.53125 92.074219 282.925781 92.074219 L 242.03125 92.074219 C 242.03125 62.007812 217.566406 37.542969 187.5 37.542969 C 157.433594 37.542969 132.96875 62.007812 132.96875 92.074219 L 92.074219 92.074219 C 88.46875 92.074219 85.480469 94.886719 85.269531 98.488281 L 71.636719 330.238281 C 71.523438 332.113281 72.191406 333.953125 73.480469 335.316406 Z M 187.5 51.175781 C 210.054688 51.175781 228.398438 69.519531 228.398438 92.074219 L 146.601562 92.074219 C 146.601562 69.519531 164.945312 51.175781 187.5 51.175781 Z M 98.5 105.707031 L 132.96875 105.707031 L 132.96875 112.523438 C 133.039062 121.457031 146.546875 121.425781 146.601562 112.523438 C 146.601562 112.523438 146.601562 105.707031 146.601562 105.707031 L 228.398438 105.707031 L 228.398438 112.523438 C 228.535156 121.484375 241.894531 121.464844 242.03125 112.523438 C 242.03125 112.523438 242.03125 105.707031 242.03125 105.707031 L 276.5 105.707031 L 289.328125 323.824219 L 85.671875 323.824219 Z M 98.5 105.707031 " fill-opacity="1" fill-rule="nonzero"/></g></svg>